<svg id="Capa_1" enable-background="new 0 0 512 512" height="512" viewBox="0 0 512 512" width="512" xmlns="http://www.w3.org/2000/svg"><g><g><g><g><g><path d="m40.016 440.45v-378.9h300.468v378.9" fill="#faf7f5"/></g></g></g><g><g><path d="m340.484 440.45v21.912c0 21.892-17.747 39.638-39.638 39.638h-221.192c-21.892 0-39.638-17.747-39.638-39.638v-21.912" fill="#d1aee5"/></g></g><g><g><g><path d="m374.911 156.087-34.1 25.173-4.219-25.173h-34.538v-146.087h169.93v146.087z" fill="#ff7d97"/></g></g><g><g><path d="m302.053 10.019c-.401-.012-.803-.019-1.208-.019h-221.191c-21.892 0-39.638 17.747-39.638 39.638v11.912h262.038v-51.531z" fill="#e0c9ed"/></g></g><g><g><path d="m414.562 93.385-35.136 22.022c-7.694 4.822-17.687-.708-17.687-9.788v-44.043c0-9.08 9.993-14.61 17.687-9.788l35.136 22.022c7.223 4.526 7.223 15.049 0 19.575z" fill="#faf7f5"/></g></g><g><g><path clip-rule="evenodd" d="m286.85 260.745v-40.35c0-25.246-20.466-78.027-45.711-78.027l-1.076 7.739c-2.178 15.666-86.068 6.131-86.068 6.131-33.125 0-59.978 26.853-59.978 59.978v44.87" fill="#fff2a0" fill-rule="evenodd"/></g></g><g><g><path d="m297.058 277.437c-1.04-9.472-8.819-17.05-18.313-17.866-2.691-.231-5.284.066-7.687.797v-9.919c-14.071 0-49.301-38.595-49.301-38.595-34.018 23.218-66.472 38.595-107.658 38.595h-4.29v9.919c-2.404-.732-4.997-1.029-7.689-.797-9.494.818-17.274 8.398-18.311 17.871-1.336 12.198 8.178 22.518 20.101 22.518 2.052 0 8.342-.306 10.208-.874v27.482c0 31.788 55.811 46.786 55.811 46.786v21.604h41.011v-21.604s55.811-14.998 55.811-46.786v-27.482c1.867.568 8.156.874 10.208.874 11.923 0 21.438-10.323 20.099-22.523z" fill="#ffdcd5"/></g></g></g></g><g><g><g><g><g><g><g><path d="m199.67 436.63c-1.612-3.932-5.716-6.454-9.949-6.148-4.215.305-7.841 3.305-8.941 7.382-1.068 3.958.478 8.332 3.828 10.711 3.472 2.465 8.171 2.464 11.643 0 3.731-2.648 5.177-7.726 3.419-11.945z"/><path d="m471.984 0h-169.93c-.125 0-.249.003-.372.008-.278-.005-.557-.008-.836-.008h-221.192c-27.371 0-49.638 22.268-49.638 49.638v412.724c0 27.371 22.268 49.638 49.639 49.638h221.191c27.37 0 49.638-22.268 49.638-49.638v-275.812l27.719-20.463h93.782c5.522 0 10-4.477 10-10v-146.087c-.001-5.523-4.478-10-10.001-10zm-421.968 49.638c0-16.343 13.296-29.638 29.638-29.638h212.399v31.55h-242.037zm250.83 442.362h-221.192c-16.343 0-29.639-13.295-29.639-29.638v-11.912h95.028c5.522 0 10-4.477 10-10s-4.478-10-10-10h-95.027v-358.9h242.038v84.537c0 5.523 4.478 10 10 10h26.075l2.394 14.284c-.026.293-.04.589-.04.889v249.19h-95.027c-5.522 0-10 4.477-10 10s4.478 10 10 10h95.027v11.912c0 16.343-13.295 29.638-29.637 29.638zm161.138-345.913h-87.073c-2.138 0-4.219.685-5.939 1.955l-20.991 15.497-1.526-9.104c-.808-4.817-4.978-8.347-9.862-8.347h-24.538v-126.088h149.931v126.087z"/><path d="m362.854 124.475c3.252 1.8 6.846 2.694 10.436 2.694 3.98 0 7.955-1.101 11.447-3.289l35.136-22.022c6.328-3.966 10.106-10.793 10.106-18.261s-3.778-14.295-10.106-18.261l-35.136-22.022c-6.641-4.161-15.024-4.39-21.883-.594-6.856 3.794-11.115 11.02-11.115 18.856v44.043c0 7.836 4.259 15.062 11.115 18.856zm8.885-62.899c0-.226 0-.915.801-1.358.285-.158.544-.213.767-.213.401 0 .687.179.81.256l35.136 22.022c.482.303.728.745.728 1.315s-.245 1.012-.728 1.315l-35.136 22.021c-.191.12-.775.487-1.576.043-.801-.443-.801-1.132-.801-1.358v-44.043z"/><path d="m276.749 326.568v-16.61c.128.002.2.002.208.002 8.578 0 16.782-3.666 22.511-10.057 5.728-6.39 8.472-14.976 7.53-23.558-.847-7.716-4.609-14.548-10.148-19.39v-36.56c0-14.595-5.813-35.893-14.466-52.995-11.594-22.918-25.856-35.032-41.245-35.032-4.99 0-9.217 3.68-9.904 8.623l-.733 5.271c-3.007 1.162-12.659 3.587-39.649 2.633-18.495-.653-35.559-2.573-35.729-2.592-.374-.042-.751-.064-1.128-.064-38.586 0-69.978 31.392-69.978 69.978v40.738c-5.542 4.844-9.305 11.68-10.149 19.4-.939 8.58 1.807 17.165 7.534 23.553 5.728 6.389 13.932 10.054 22.508 10.054.008 0 .08 0 .208-.002v16.61c0 11.752 5.736 28.938 33.063 44.063 8.508 4.709 16.963 8.032 22.748 10.042v14.285c0 5.523 4.478 10 10 10h41.011c5.522 0 10-4.477 10-10v-14.285c5.785-2.01 14.24-5.333 22.748-10.042 27.324-15.128 33.06-32.313 33.06-44.065zm-7.244-37.095c.057.016.109.032.157.046-.052-.015-.104-.031-.157-.046zm-116.04-123.232c3.67.401 22.831 2.409 42.547 2.804 24.323.496 47.256-.93 52.836-13.565 5.198 3.878 10.759 11.201 15.69 20.949 7.249 14.329 12.312 32.408 12.312 43.966v21.901c-1.609-1.145-3.571-1.826-5.691-1.847-5.878-.75-25.477-17.23-42.017-35.339-3.359-3.676-8.91-4.323-13.021-1.517-38.356 26.177-67.914 36.855-102.021 36.855h-4.29c-2.159 0-4.158.684-5.792 1.848v-26.08c-.001-27.381 22.132-49.69 49.447-49.975zm-42.261 123.279c.048-.014.1-.03.156-.046-.052.014-.104.03-.156.046zm97.14 74.177c-4.369 1.174-7.405 5.134-7.405 9.657v11.604h-21.011v-11.604c0-4.516-3.036-8.474-7.395-9.655-12.561-3.403-48.416-17.53-48.416-37.131v-27.482c0-3.168-1.502-6.149-4.048-8.035-2.473-1.832-5.647-2.421-8.604-1.607-1.281.238-5.646.517-7.557.517-2.943 0-5.648-1.209-7.617-3.404-1.967-2.194-2.87-5.044-2.544-8.026.517-4.72 4.484-8.587 9.229-8.997 1.348-.117 2.665.019 3.919.4 3.033.924 6.32.354 8.865-1.531 2.546-1.886 4.047-4.867 4.047-8.035v-.017c41.244-1.415 73.754-17.988 100.5-35.497 3.625 3.724 8.605 8.683 14.079 13.681 12.299 11.231 20.662 16.8 26.67 19.5v2.332c0 3.168 1.501 6.149 4.047 8.035s5.835 2.455 8.865 1.532c1.254-.382 2.57-.518 3.919-.401 4.743.408 8.71 4.274 9.229 8.994.327 2.982-.576 5.833-2.543 8.027-1.968 2.196-4.673 3.406-7.617 3.406-1.91 0-6.275-.278-7.557-.517-2.958-.815-6.133-.225-8.604 1.607-2.546 1.886-4.048 4.867-4.048 8.035v27.482c.002 19.602-35.853 33.729-48.403 37.13z"/><path d="m169.109 288.08c0-5.523-4.478-10-10-10s-10 4.477-10 10v2.633c0 5.523 4.478 10 10 10s10-4.477 10-10z"/><path d="m221.757 278.08c-5.522 0-10 4.477-10 10v2.633c0 5.523 4.478 10 10 10s10-4.477 10-10v-2.633c0-5.523-4.478-10-10-10z"/><path d="m196.478 322.842c-1.615 1.616-3.762 2.505-6.045 2.505-2.282 0-4.429-.89-6.044-2.505-3.905-3.906-10.236-3.908-14.142-.002-3.906 3.904-3.907 10.236-.003 14.142 5.393 5.395 12.563 8.366 20.188 8.366 7.627 0 14.797-2.971 20.189-8.366 3.904-3.906 3.903-10.238-.003-14.142-3.904-3.906-10.237-3.903-14.14.002z"/></g></g></g></g></g></g></g></g></svg>