<svg id="Layer_1" enable-background="new 0 0 512.008 512.008" height="512" viewBox="0 0 512.008 512.008" width="512" xmlns="http://www.w3.org/2000/svg"><g><g clip-rule="evenodd" fill-rule="evenodd"><path d="m256.001 106.004c82.842 0 150 67.157 150 150s-67.157 150-150 150-150-67.157-150-150 67.157-150 150-150zm189.999 150c0-104.934-85.066-190-190-190s-190 85.066-190 190 85.066 190 190 190c104.935 0 190-85.066 190-190z" fill="#cbe558"/><g><path d="m459.235 351.664c-15.531 15.531-54.253 25.743-74.04 25.743v14.653 10.638c0 14.443 6.63 27.414 16.997 36.017 8.111 6.731 18.509 10.79 29.81 10.79 11.3 0 21.699-4.058 29.81-10.79 10.367-8.603 16.997-21.574 16.997-36.017v-10.638-14.653c-8.115-4.684-17.573-9.384-19.574-25.743z" fill="#ffdcd5"/><path d="m385.169 377.408c19.763 0 58.44-10.212 73.953-25.743 1.999 16.359 11.445 21.058 19.551 25.743v12.848l6.818-2.268 6.818-4.073c24.354-39.719-2.142-66.016-25.057-62.404-50.049-50.834-128.145.555-96.614 63.471l7.266 3.54 7.266 3.54c0-.054 0-.109 0-.163-.001-4.177-.001-7.823-.001-14.491z" fill="#8690af"/><path d="m502.001 502.005c0-27.855-16.491-52.042-40.19-63.29-8.111 6.732-18.509 10.79-29.81 10.79s-21.699-4.058-29.81-10.79c-23.699 11.248-40.19 35.435-40.19 63.29z" fill="#b278d3"/></g><g><path d="m402.191 147.861c-23.699 11.248-40.19 35.434-40.19 63.29h140c0-27.855-16.491-52.042-40.19-63.29-8.111 6.732-18.51 10.79-29.81 10.79s-21.699-4.058-29.81-10.79z" fill="#66e0f7"/><path d="m432.001 158.651c25.744 0 46.806-21.063 46.806-46.807 0-11.347 0-13.944 0-25.291-19.786 0-36.106-7.21-46.806-25.743-10.7 18.533-27.02 25.743-46.807 25.743v25.291c.001 25.744 21.064 46.807 46.807 46.807z" fill="#ffdcd5"/><path d="m370.758 177.358c7.119-12.812 18.143-23.19 31.434-29.497-10.367-8.603-16.997-21.574-16.997-36.017 0-11.347 0-13.944 0-25.291 19.786 0 36.106-7.21 46.807-25.743 10.7 18.533 27.02 25.743 46.806 25.743v25.291c0 14.443-6.63 27.414-16.997 36.017 13.291 6.307 24.315 16.685 31.434 29.498v-106.112c0-33.684-27.56-61.244-61.244-61.244s-61.243 27.56-61.243 61.244z" fill="#ff5d7d"/></g><g><path d="m50.19 438.715c-23.699 11.248-40.19 35.435-40.19 63.29h140c0-27.855-16.491-52.042-40.19-63.29-8.111 6.732-18.51 10.79-29.81 10.79s-21.699-4.058-29.81-10.79z" fill="#ff5d7d"/><path d="m80 449.505c25.744 0 46.807-21.063 46.807-46.807 0-11.347 0-13.944 0-25.291-19.786 0-36.106-7.21-46.807-25.743-10.7 18.533-27.02 25.743-46.806 25.743v25.291c0 25.744 21.062 46.807 46.806 46.807z" fill="#ffdcd5"/><path d="m18.756 468.213c7.119-12.812 18.143-23.19 31.434-29.497-10.367-8.603-16.997-21.574-16.997-36.017 0-11.347 0-13.944 0-25.291 19.786 0 36.106-7.21 46.806-25.743 10.7 18.533 27.02 25.743 46.807 25.743v25.291c0 14.443-6.63 27.414-16.997 36.017 13.291 6.307 24.315 16.685 31.434 29.498v-106.113c0-33.684-27.56-61.244-61.244-61.244s-61.243 27.56-61.243 61.244z" fill="#c68a65"/></g><g><path d="m107.233 60.81c-15.531 15.531-54.253 25.743-74.039 25.743v14.653 10.638c0 14.443 6.63 27.414 16.997 36.017 8.111 6.732 18.509 10.79 29.81 10.79 11.3 0 21.699-4.058 29.81-10.79 10.367-8.603 16.997-21.574 16.997-36.017v-10.638-14.653c-8.116-4.685-17.573-9.384-19.575-25.743z" fill="#ffdcd5"/><path d="m33.168 86.553c19.763 0 58.44-10.212 73.953-25.743 1.999 16.359 11.445 21.058 19.551 25.743v12.848l6.818-2.268 6.818-4.073c24.354-39.719-2.142-66.016-25.057-62.404-50.049-50.833-128.146.555-96.614 63.471l7.266 3.54 7.266 3.54c0-.054 0-.109 0-.163-.001-4.176-.001-7.823-.001-14.491z" fill="#ffc144"/><path d="m150 211.151c0-27.855-16.491-52.042-40.19-63.29-8.111 6.732-18.509 10.79-29.81 10.79s-21.699-4.058-29.81-10.79c-23.699 11.248-40.19 35.434-40.19 63.29z" fill="#60a4ff"/></g></g><g><path d="m477.695 436.404c6.978-9.436 11.114-21.095 11.114-33.705v-5.044l8.629-5.156c1.387-.829 2.552-1.98 3.396-3.357 13.367-21.801 14.81-43.627 3.959-59.883-7.713-11.557-20.615-18.331-33.855-18.08-6.014-5.499-12.527-9.921-19.395-13.229 2.953-13.774 4.457-27.857 4.457-41.945 0-11.671-1.045-23.355-3.078-34.855h49.079c5.523 0 10-4.478 10-10 0-12.951-3.096-25.365-8.756-36.414v-103.489c0-39.283-31.96-71.243-71.244-71.243s-71.244 31.96-71.244 71.243v14.373c-31.491-19.422-67.394-29.615-104.757-29.615-35.247 0-69.492 9.257-99.575 26.542 5.745-16.289 4.592-31.816-3.634-44.141-7.712-11.557-20.605-18.307-33.855-18.082-13.06-11.943-28.457-18.874-44.795-20.121-16.174-1.234-32.339 3.279-45.514 12.707-22.67 16.222-37.316 49.012-18.93 85.698.984 1.963 2.586 3.548 4.561 4.51l8.937 4.354v4.373c0 12.61 4.135 24.27 11.114 33.705-21.41 14.87-34.309 39.091-34.309 65.6 0 5.522 4.477 10 10 10h49.08c-2.034 11.499-3.079 23.183-3.079 34.855 0 12.683 1.226 25.378 3.625 37.837-29.385 8.787-50.87 36.055-50.87 68.259v103.469c-5.66 11.048-8.756 23.465-8.756 36.435 0 5.522 4.477 10 10 10h140c5.523 0 10-4.478 10-10 0-12.951-3.096-25.365-8.756-36.414v-39.202c31.49 19.422 67.393 29.615 104.757 29.615 43.775 0 86.029-14.29 120.664-40.511 1.775 7.679 5.1 14.769 9.644 20.913-21.408 14.869-34.308 39.09-34.308 65.6 0 5.522 4.477 10 10 10h140c5.523 0 10-4.478 10-10 0-26.477-12.904-50.725-34.306-65.602zm-82.5-33.705v-15.896c17.793-1.962 41.753-8.609 58.711-18.709 4.013 7.48 9.784 11.882 14.902 15.045v19.56c0 20.295-16.512 36.807-36.807 36.807s-36.806-16.512-36.806-36.807zm73.614-71.31c7.233-1.137 15.006 2.468 19.349 8.974 5.398 8.088 5.021 19.433-.846 31.81-.856-1.39-2.041-2.581-3.504-3.426l-1.135-.651c-7.352-4.214-12.209-6.997-13.512-17.646-.465-3.795-3.053-6.994-6.668-8.239-3.616-1.245-7.625-.322-10.329 2.383-13.235 13.234-49.189 22.814-66.969 22.814-3.866 0-7.212 2.197-8.877 5.407-8.444-24.272 2.718-43.317 15.949-52.785 17.374-12.432 45.093-14.625 67.859 8.497 2.263 2.299 5.499 3.363 8.683 2.862zm-32.809-75.384c0 12.021-1.224 24.037-3.615 35.817-2.064-.346-4.145-.603-6.242-.763-4.733-.363-9.462-.219-14.118.382 2.639-11.608 3.976-23.473 3.976-35.436 0-11.742-1.302-23.422-3.855-34.855h20.444c2.262 11.468 3.41 23.17 3.41 34.855zm-63.168-54.855c2.894-17.257 13.219-32.377 28.536-41.504 8.846 5.689 19.357 9.005 30.633 9.005 11.278 0 21.789-3.317 30.636-9.007 15.309 9.128 25.634 24.265 28.532 41.506zm104.863-55.601c2.125-2.874 3.99-5.952 5.551-9.203v13.441c-1.783-1.482-3.629-2.902-5.551-4.238zm-8.887-33.705c0 20.295-16.511 36.807-36.807 36.807s-36.807-16.512-36.807-36.807v-15.881c14.987-1.837 27.303-7.952 36.807-18.268 9.503 10.315 21.819 16.431 36.807 18.268zm-88.05 24.502c1.561 3.251 3.426 6.33 5.552 9.204-1.922 1.335-3.77 2.749-5.552 4.229zm51.244-116.342c28.255 0 51.243 22.987 51.243 51.243v6.355c-1.338-.665-2.841-1.048-4.437-1.048-17.854 0-29.976-6.592-38.146-20.743-1.786-3.094-5.087-5-8.66-5s-6.874 1.906-8.66 5c-8.171 14.151-20.292 20.743-38.146 20.743-1.596 0-3.099.383-4.437 1.048v-6.355c-.001-28.256 22.987-51.243 51.243-51.243zm-71.244 89.634v25.431c-16.629-14.407-36.105-25.276-57.291-31.86-5.277-1.638-10.878 1.31-12.517 6.582-1.639 5.274 1.308 10.879 6.583 12.518 24.438 7.594 46.269 21.712 63.226 40.842v11.566c-5.66 11.048-8.756 23.465-8.756 36.434 0 5.522 4.477 10 10 10h29.587c2.927 11.383 4.411 23.084 4.411 34.855 0 14.436-2.24 28.706-6.615 42.45-3.032 1.549-5.965 3.313-8.757 5.311-15.581 11.149-27.371 30.125-27.252 52.813-26.253 25.433-60.757 39.426-97.375 39.426-40.972 0-79.744-17.855-106.38-48.987-3.387-15.644-11.922-29.385-23.743-39.361-6.554-16.509-9.877-33.887-9.877-51.651 0-11.769 1.484-23.471 4.411-34.855h29.587c5.523 0 10-4.478 10-10 0-15.722-4.56-30.654-12.738-43.309 17.458-21.561 40.597-37.265 67.214-45.534 5.274-1.639 8.222-7.242 6.583-12.517s-7.244-8.223-12.517-6.583c-29.2 9.072-54.725 25.986-74.375 49.123-2.651-2.43-5.478-4.698-8.474-6.78 5.07-6.855 8.625-14.889 10.197-23.606 33.066-29.625 75.708-45.938 120.111-45.938 37.847-.003 74.027 11.625 104.757 33.63zm-235.065 326.765c2.126-2.874 3.99-5.952 5.551-9.204v13.442c-1.783-1.481-3.629-2.901-5.551-4.238zm-82.5-33.704v-15.882c14.988-1.837 27.303-7.951 36.807-18.268 9.503 10.316 21.818 16.431 36.806 18.268v15.882c0 20.295-16.511 36.807-36.806 36.807-20.295-.001-36.807-16.512-36.807-36.807zm.001-290.855v-15.895c17.792-1.962 41.752-8.609 58.711-18.709 4.013 7.481 9.784 11.881 14.902 15.045v19.56c0 20.295-16.512 36.807-36.807 36.807-20.295-.001-36.806-16.513-36.806-36.808zm-2.928-82.669c17.373-12.432 45.093-14.626 67.859 8.496 2.264 2.3 5.499 3.364 8.683 2.862 7.231-1.137 15.006 2.467 19.35 8.975 5.398 8.088 5.021 19.433-.846 31.81-.856-1.39-2.041-2.581-3.504-3.425l-1.138-.654c-7.351-4.213-12.207-6.996-13.509-17.644-.465-3.795-3.053-6.994-6.668-8.239s-7.625-.322-10.329 2.383c-13.237 13.234-49.191 22.814-66.97 22.814-3.866 0-7.213 2.198-8.877 5.408-8.444-24.272 2.717-43.317 15.949-52.786zm9.101 130.471c8.846 5.689 19.357 9.005 30.633 9.005 11.278 0 21.789-3.317 30.636-9.007 15.308 9.129 25.634 24.265 28.532 41.506h-118.338c2.895-17.256 13.22-32.377 28.537-41.504zm26.634 96.359c0-11.686 1.149-23.388 3.411-34.855h20.444c-2.553 11.433-3.855 23.113-3.855 34.855 0 12.852 1.527 25.527 4.544 37.886-6.51-1.964-13.404-3.033-20.546-3.033-.196 0-.39.013-.586.015-2.263-11.474-3.412-23.179-3.412-34.868zm3.999 54.853c28.256 0 51.244 22.987 51.244 51.243v6.355c-1.339-.665-2.842-1.048-4.438-1.048-17.854 0-29.976-6.591-38.146-20.743-1.786-3.094-5.087-5-8.66-5s-6.874 1.906-8.66 5c-8.17 14.152-20.292 20.743-38.146 20.743-1.596 0-3.099.383-4.437 1.048v-6.355c-.001-28.256 22.987-51.243 51.243-51.243zm-45.692 125.547c-1.922 1.335-3.771 2.749-5.552 4.229v-13.433c1.561 3.251 3.426 6.329 5.552 9.204zm-13.478 55.6c2.894-17.257 13.219-32.377 28.537-41.504 8.846 5.689 19.356 9.005 30.633 9.005 11.278 0 21.789-3.317 30.636-9.007 15.309 9.129 25.634 24.265 28.532 41.506zm130.414-89.636v-25.436c28.887 25.047 65.955 39.071 104.757 39.071 37.454 0 72.974-12.807 101.531-36.331 1.137 3.226 2.514 6.492 4.167 9.79.984 1.963 2.586 3.548 4.561 4.51l3.363 1.638c-32.062 26.107-72.083 40.393-113.621 40.393-37.85 0-74.03-11.63-104.758-33.635zm221.588 89.636c2.894-17.257 13.219-32.377 28.537-41.504 8.846 5.689 19.356 9.005 30.633 9.005 11.278 0 21.789-3.317 30.636-9.007 15.308 9.129 25.633 24.265 28.531 41.506z"/><path d="m256.008 116.005c5.523 0 10-4.478 10-10s-4.477-10-10-10h-.007c-5.523 0-9.996 4.478-9.996 10s4.48 10 10.003 10z"/></g></g></svg>