<svg id="Capa_1" enable-background="new 0 0 511.984 511.984" height="512" viewBox="0 0 511.984 511.984" width="512" xmlns="http://www.w3.org/2000/svg"><circle cx="52.934" cy="392.596" fill="#f5a871" r="33.77"/><circle cx="251.312" cy="337.269" fill="#f5a871" r="33.77"/><path d="m248.463 455.115c-12.173 21.629-32.616 38.604-58.425 45.797-51.587 14.386-105.081-15.779-119.467-67.376l-24.386-87.424-11.768-42.191 186.844-52.111 22.34 80.083 13.813 49.532c7.194 25.798 3.261 52.081-8.951 73.69z" fill="#fdd1a7"/><path d="m243.601 331.893-77.623 21.649c-5.909 1.65-11.985 2.48-18.072 2.48-14.613 0-29.079-4.901-40.748-13.803-5.642-4.308-12.45-6.669-19.159-6.669-2.618 0-5.217.356-7.737 1.057l-34.079 9.505-11.768-42.191 186.844-52.111z" fill="#ffbc8a"/><path d="m177.852 204.867-78.043 21.766c-12.864 3.588-20.384 16.924-16.796 29.789 0 0-11.936-2.498-24.8 1.089l-5.956 1.661c-15.538 4.334-24.621 20.443-20.288 35.981l10.761 38.582 34.087-9.507c13.221-3.687 27.217-.549 38.129 7.776 13.08 9.979 30.513 13.924 47.583 9.163l77.623-21.649-26.318-94.364c-4.335-15.537-20.444-24.62-35.982-20.287z" fill="#fddd45"/><path d="m213.841 225.158 26.317 94.359-22.793 6.357-26.317-94.359c-4.336-15.545-20.432-24.622-35.978-20.286l22.778-6.353c15.544-4.335 31.657 4.737 35.993 20.282z" fill="#f8c52d"/><path d="m212.342 404.679c5.143 18.441-5.637 37.561-24.078 42.704-18.441 5.143-37.561-5.637-42.704-24.078z" fill="#fc7cb6"/><circle cx="266.586" cy="126.455" fill="#c47a4a" r="32.947"/><circle cx="459.872" cy="181.345" fill="#c47a4a" r="32.947"/><path d="m275.983 114.731-15.555 54.774c-14.277 50.274 14.904 102.602 65.178 116.879 50.274 14.277 102.602-14.904 116.879-65.178l15.555-54.774c14.277-50.274-14.904-102.602-65.178-116.879-50.274-14.276-102.602 14.905-116.879 65.178z" fill="#e89a5e"/><path d="m456.26 109.133c-4.18 3.372-8.642 6.371-13.306 8.972-21.154 11.806-46.809 15.525-71.936 8.389-30.691-8.716-53.52-31.618-63.406-59.575 4.18-3.372 8.645-6.381 13.323-8.99 21.137-11.787 46.795-15.517 71.933-8.378 30.691 8.715 53.521 31.617 63.392 59.582z" fill="#688d97"/><path d="m456.263 109.133c-4.18 3.369-8.646 6.373-13.309 8.972-21.154 11.807-46.805 15.523-71.931 8.389-18.615-5.286-34.345-15.789-46.034-29.474 8.537 5.464 18.003 9.782 28.259 12.697 28.18 8.003 56.952 3.834 80.676-9.406 4.802-2.678 9.426-5.741 13.774-9.159 3.477 5.67 6.352 11.697 8.565 17.981z" fill="#557983"/><path d="m373.581 212.871c-5.103 17.968-23.805 28.398-41.773 23.295-17.968-5.103-28.398-23.805-23.295-41.773z" fill="#fc7cb6"/><path d="m330.322 400.594 3.403-11.85c1.173-4.083 5.183-6.67 9.386-6.056l58.199 8.507c5.086.743 8.35 5.801 6.931 10.742l-7.758 27.013c-1.419 4.941-6.869 7.496-11.575 5.427l-53.844-23.671c-3.888-1.708-5.915-6.029-4.742-10.112z" fill="#fc7cb6"/><path d="m408.243 401.937-7.756 27.014c-1.423 4.94-6.877 7.499-11.58 5.425l-9.268-4.071c2.421-.899 4.417-2.895 5.187-5.602l7.766-27.014c.84-2.954.02-5.948-1.877-8.043l10.592 1.551c5.088.741 8.349 5.8 6.936 10.74z" fill="#fb5fa7"/><path d="m324.716 344.07-.855-12.299c-.295-4.238 2.589-8.041 6.749-8.901l57.599-11.911c5.034-1.041 9.83 2.596 10.187 7.724l1.949 28.038c.356 5.128-3.891 9.393-9.02 9.059l-58.693-3.828c-4.239-.276-7.621-3.644-7.916-7.882z" fill="#fc7cb6"/><path d="m391.327 355.775-12.064-.79c1.67-1.66 2.648-4.021 2.46-6.59l-1.946-28.031c-.207-2.964-1.897-5.434-4.259-6.778l12.687-2.628c5.039-1.037 9.831 2.599 10.187 7.727l1.956 28.041c.356 5.126-3.893 9.385-9.021 9.049z" fill="#fb5fa7"/><path d="m294.461 444.438 7.251-9.971c2.498-3.436 7.152-4.495 10.891-2.48l51.78 27.899c4.525 2.438 5.862 8.307 2.839 12.465l-16.529 22.731c-3.023 4.157-9.018 4.695-12.733 1.141l-42.501-40.659c-3.07-2.937-3.496-7.69-.998-11.126z" fill="#fc7cb6"/><path d="m367.219 472.347-16.53 22.735c-3.024 4.16-9.011 4.693-12.726 1.136l-8.329-7.964c3.073.563 6.373-.613 8.369-3.359l16.53-22.726c1.502-2.065 1.927-4.555 1.423-6.828l8.428 4.545c4.524 2.442 5.858 8.311 2.835 12.461z" fill="#fb5fa7"/><path d="m174.24 103.136-6.52 10.464c-2.246 3.605-6.812 4.995-10.686 3.252l-53.641-24.128c-4.688-2.109-6.441-7.867-3.722-12.23l14.863-23.854c2.718-4.363 8.66-5.327 12.619-2.048l45.298 37.518c3.271 2.71 4.036 7.421 1.789 11.026z" fill="#64e0c4"/><path d="m127.157 54.59 45.29 37.52c3.273 2.709 4.039 7.417 1.791 11.027l-6.518 10.461c-.206.331-.43.642-.678.928 1.555-3.442.651-7.545-2.324-10.009l-45.294-37.513c-3.954-3.284-9.898-2.317-12.618 2.049l7.734-12.413c2.715-4.359 8.658-5.327 12.617-2.05z" fill="#27d1b3"/><path d="m169.545 159.373-2.548 12.063c-.878 4.156-4.693 7.024-8.929 6.711l-58.658-4.327c-5.126-.378-8.743-5.19-7.681-10.219l5.808-27.499c1.062-5.029 6.316-7.968 11.157-6.241l55.398 19.763c4.001 1.428 6.331 5.593 5.453 9.749z" fill="#64e0c4"/><path d="m108.698 129.858 55.391 19.767c4.002 1.426 6.333 5.588 5.454 9.749l-2.547 12.059c-.081.382-.185.75-.32 1.104.284-3.766-1.969-7.313-5.608-8.611l-55.393-19.759c-4.839-1.733-10.093 1.208-11.156 6.241l3.022-14.31c1.062-5.023 6.316-7.965 11.157-6.24z" fill="#27d1b3"/><path d="m224.234 73.42-9.705 7.603c-3.344 2.62-8.11 2.364-11.154-.599l-42.155-41.019c-3.684-3.585-3.361-9.596.685-12.765l22.125-17.332c4.047-3.17 9.96-2.044 12.558 2.391l29.734 50.748c2.148 3.665 1.256 8.353-2.088 10.973z" fill="#64e0c4"/><path d="m196.594 11.698 29.726 50.747c2.149 3.665 1.259 8.352-2.089 10.974l-9.702 7.601c-.307.241-.624.456-.954.64 2.638-2.703 3.192-6.868 1.239-10.201l-29.734-50.742c-2.593-4.438-8.509-5.562-12.558-2.39l11.513-9.019c4.043-3.167 9.959-2.043 12.559 2.39z" fill="#27d1b3"/><path d="m287.261 357.538c5.414-9.603 6.765-20.738 3.804-31.356s-9.881-19.448-19.483-24.862c-9.16-5.164-19.714-6.621-29.885-4.176l-20.639-74.004c-5.439-19.497-25.726-30.934-45.221-25.497l-28.909 8.063c-3.99 1.113-6.322 5.249-5.21 9.239s5.251 6.323 9.239 5.209l28.909-8.063c11.529-3.212 23.526 3.548 26.742 15.079l24.303 87.14-70.398 19.634c-14.271 3.979-29.22 1.1-41.019-7.902-13.117-10.006-29.407-13.302-44.693-9.037l-26.863 7.492-8.745-31.357c-3.216-11.53 3.549-23.526 15.078-26.742l5.956-1.661c10.826-3.019 21.172-.988 21.25-.973 2.564.538 5.221-.303 7.011-2.214 1.79-1.912 2.453-4.619 1.75-7.141-2.472-8.86 2.727-18.079 11.586-20.55l16.766-4.676c3.99-1.112 6.322-5.249 5.21-9.239-1.112-3.991-5.25-6.321-9.239-5.209l-16.766 4.676c-13.371 3.729-22.351 15.551-23.12 28.692-5.102-.118-11.661.286-18.477 2.187l-5.956 1.661c-19.496 5.437-30.935 25.723-25.498 45.22l15.652 56.12c-21.029 6.699-33.191 28.966-27.214 50.396 5.084 18.225 21.708 30.187 39.767 30.187 3.173 0 6.39-.394 9.597-1.164l.793 2.845c12.87 46.146 54.96 76.433 100.686 76.433 9.267 0 18.685-1.245 28.037-3.853 55.499-15.479 88.058-73.223 72.579-128.722l-.79-2.831c9.968-3.174 18.246-9.884 23.41-19.044zm-259.631 42.115c-3.755-13.462 3.736-27.447 16.797-31.909l14.089 50.518c-13.486 2.941-27.131-5.147-30.886-18.609zm160.402 94.029c-47.532 13.255-96.988-14.629-110.244-62.161l-25.819-92.577 26.862-7.492c10.716-2.988 22.222-.614 31.566 6.515 10.98 8.377 24.03 12.736 37.378 12.736 5.58 0 11.214-.762 16.768-2.312l70.398-19.634 15.25 54.68c13.257 47.533-14.628 96.988-62.159 110.245zm86.163-143.511c-3.197 5.67-8.266 9.866-14.376 11.949l-14.089-50.518c6.308-1.38 12.816-.413 18.485 2.784 6.112 3.447 10.517 9.067 12.401 15.826 1.885 6.758 1.025 13.847-2.421 19.959z"/><path d="m210.328 397.455-66.782 18.625c-1.916.534-3.541 1.808-4.519 3.541-.977 1.733-1.226 3.783-.691 5.699 5.194 18.621 22.179 30.842 40.63 30.842 3.739 0 7.54-.502 11.313-1.555 10.849-3.025 19.87-10.095 25.401-19.905 5.532-9.811 6.912-21.188 3.887-32.038-1.112-3.989-5.25-6.321-9.239-5.209zm-7.713 29.88c-3.564 6.32-9.376 10.875-16.365 12.824-11.926 3.324-24.246-1.877-30.436-11.928l50.314-14.033c-.028 4.558-1.213 9.057-3.513 13.137z"/><path d="m144.093 390.124c-3.159-11.32-14.938-17.964-26.263-14.807-11.322 3.158-17.965 14.939-14.808 26.262.925 3.316 3.938 5.487 7.221 5.487.666 0 1.345-.09 2.019-.277 3.99-1.113 6.322-5.249 5.21-9.239-.937-3.356 1.032-6.848 4.388-7.784 3.355-.936 6.849 1.033 7.784 4.389 1.114 3.99 5.252 6.323 9.24 5.209 3.99-1.113 6.322-5.25 5.209-9.24z"/><path d="m205.686 350.815c-11.322 3.158-17.966 14.938-14.809 26.261.925 3.316 3.938 5.488 7.221 5.488.666 0 1.345-.09 2.019-.277 3.989-1.113 6.322-5.249 5.21-9.239-.936-3.356 1.033-6.849 4.389-7.785 3.354-.935 6.848 1.033 7.783 4.389 1.114 3.99 5.252 6.324 9.24 5.209 3.989-1.113 6.321-5.25 5.209-9.24-3.159-11.322-14.94-17.966-26.262-14.806z"/><path d="m470.922 142.438c-.581-.165-1.168-.312-1.756-.451.272-17.71-4.101-35.26-12.959-51.144-13.286-23.825-35.055-41.051-61.297-48.503-25.582-7.265-52.587-4.364-76.036 8.175-16.544 8.846-30.065 21.833-39.471 37.58-.585-.195-1.175-.379-1.768-.547-21.451-6.09-43.863 6.405-49.958 27.859-5.94 20.918 5.796 42.737 26.271 49.463l-.735 2.588c-7.452 26.242-4.239 53.814 9.047 77.64s35.056 41.051 61.297 48.503c9.122 2.59 18.543 3.889 27.958 3.889 7.854 0 15.704-.904 23.364-2.716 4.031-.954 6.526-4.994 5.573-9.025-.953-4.032-5-6.523-9.024-5.573-14.362 3.396-29.497 3.049-43.773-1.005-22.388-6.357-40.959-21.053-52.294-41.379s-14.076-43.849-7.718-66.236l7.369-25.95c1.132-3.984-1.182-8.132-5.166-9.264-3.983-1.132-8.132 1.181-9.264 5.166l-2.532 8.915c-5.828-2.066-10.651-6.124-13.69-11.573-3.311-5.937-4.11-12.807-2.254-19.345 3.745-13.182 17.284-20.982 30.483-17.771-.968 2.363-1.878 4.757-2.675 7.207-1.28 3.939.874 8.17 4.813 9.452 3.934 1.278 8.17-.873 9.451-4.813 4.308-13.246 11.467-24.74 20.565-34.048 12.599 26.235 36.039 46.174 64.224 54.178 9.26 2.629 18.684 3.931 28.051 3.931 17.184 0 34.173-4.382 49.588-12.984 1.841-1.027 3.642-2.128 5.417-3.266 3.192 14.048 2.846 28.75-1.2 42.995l-15.555 54.774c-5.678 19.994-18.334 37.322-35.639 48.792-3.453 2.289-4.396 6.943-2.107 10.396 1.443 2.177 3.827 3.357 6.258 3.357 1.423 0 2.862-.405 4.137-1.25 20.288-13.449 35.126-33.762 41.781-57.198l.739-2.603c3.147.757 6.303 1.144 9.418 1.144 17.626-.001 33.876-11.628 38.924-29.402 6.095-21.455-6.404-43.866-27.857-49.958zm-31.623-30.883c-20.318 11.34-43.84 14.083-66.232 7.723-25.34-7.196-46.179-25.706-56.444-49.892 20.766-14.71 47.743-20.128 74.19-12.617 22.388 6.357 40.96 21.053 52.294 41.379 1.531 2.746 2.892 5.555 4.109 8.407-2.541 1.796-5.185 3.477-7.917 5zm45.052 76.742c-1.856 6.539-6.148 11.962-12.085 15.273-5.45 3.04-11.685 3.957-17.729 2.652l10.717-37.74c1.065-3.749 1.904-7.525 2.535-11.314 12.903 4.218 20.302 17.958 16.562 31.129z"/><path d="m329.759 243.381c3.759 1.067 7.545 1.576 11.272 1.576 18.006 0 34.606-11.879 39.764-30.037 1.132-3.984-1.182-8.132-5.166-9.264l-65.067-18.479c-3.982-1.131-8.132 1.181-9.264 5.166-3.016 10.618-1.716 21.773 3.66 31.414 5.375 9.639 14.183 16.608 24.801 19.624zm33.511-25.641c-6.084 9.574-17.959 14.465-29.414 11.211-6.763-1.92-12.373-6.36-15.797-12.5-2.17-3.89-3.297-8.168-3.343-12.5z"/><path d="m316.728 169.198c.685.194 1.374.287 2.052.287 3.269 0 6.274-2.154 7.211-5.454 3.159-11.129-3.324-22.754-14.452-25.915-5.393-1.531-11.057-.871-15.95 1.858-4.896 2.73-8.435 7.203-9.965 12.594-1.131 3.984 1.182 8.132 5.167 9.263 3.983 1.13 8.132-1.183 9.263-5.167.437-1.536 1.445-2.811 2.84-3.589 1.396-.778 3.01-.967 4.548-.53 3.173.901 5.021 4.215 4.12 7.388-1.132 3.987 1.181 8.134 5.166 9.265z"/><path d="m402.327 193.508c.685.194 1.374.287 2.053.287 3.268 0 6.273-2.153 7.211-5.453 3.16-11.129-3.322-22.754-14.452-25.916-5.391-1.53-11.057-.871-15.95 1.858-4.895 2.729-8.434 7.202-9.965 12.593-1.132 3.984 1.182 8.132 5.166 9.264 3.981 1.129 8.132-1.181 9.264-5.166.437-1.537 1.445-2.812 2.841-3.59 1.395-.779 3.01-.967 4.547-.53 3.173.901 5.021 4.215 4.12 7.387-1.133 3.986 1.18 8.134 5.165 9.266z"/><path d="m402.395 383.774-58.199-8.507c-7.886-1.151-15.48 3.752-17.68 11.407l-3.403 11.85c-2.198 7.655 1.642 15.845 8.933 19.05l53.845 23.671c2.052.902 4.243 1.352 6.435 1.352 2.319 0 4.639-.505 6.788-1.513 4.178-1.959 7.305-5.627 8.579-10.063l7.758-27.013c1.273-4.436.569-9.204-1.933-13.081-2.503-3.878-6.557-6.485-11.123-7.153zm-1.363 16.093-7.758 27.013c-.082.287-.261.496-.53.622-.271.127-.546.13-.816.01l-53.845-23.671c-.451-.198-.688-.704-.552-1.177l3.403-11.849c.122-.427.517-.716.95-.716.047 0 .095.003.142.011l58.199 8.507c.295.043.526.192.688.442s.202.522.119.808z"/><path d="m316.379 332.292.854 12.298c.552 7.945 6.961 14.328 14.909 14.846l58.693 3.828c.349.023.695.034 1.042.034 4.237 0 8.317-1.684 11.327-4.707 3.257-3.27 4.94-7.786 4.621-12.39l-1.948-28.038c-.32-4.604-2.613-8.843-6.29-11.631-3.678-2.789-8.381-3.85-12.898-2.917l-57.599 11.911c-7.798 1.612-13.262 8.819-12.711 16.766zm15.749-2.077 57.599-11.911c.073-.015.145-.023.215-.023.21 0 .405.068.583.203.237.18.368.422.389.719l1.949 28.038c.021.297-.076.555-.286.766s-.47.309-.764.289l-58.693-3.828c-.491-.032-.888-.426-.921-.917 0 0 0-.001-.001-.001l-.854-12.298c-.035-.492.303-.937.784-1.037z"/><path d="m367.941 453.283-51.78-27.898c-7.012-3.78-15.831-1.771-20.514 4.671l-7.251 9.971s-.001 0-.001.001c-4.683 6.441-3.875 15.45 1.879 20.956l42.502 40.66c2.988 2.858 6.951 4.435 11.05 4.435.476 0 .952-.021 1.43-.064 4.596-.412 8.789-2.789 11.503-6.521l16.53-22.732c2.713-3.732 3.682-8.453 2.657-12.952-1.025-4.501-3.943-8.338-8.005-10.527zm-6.784 14.656-16.529 22.731c-.176.241-.415.376-.712.403-.286.028-.557-.064-.771-.27l-42.501-40.659c-.355-.34-.405-.897-.116-1.295l7.252-9.972c.288-.396.831-.523 1.267-.288l51.779 27.898c.263.142.429.361.495.651s.011.561-.164.801z"/><path d="m100.318 99.565 53.641 24.128c2.103.945 4.32 1.396 6.514 1.396 5.385 0 10.621-2.72 13.614-7.523l6.52-10.463h.001c4.211-6.76 2.761-15.688-3.372-20.768l-45.298-37.519c-3.554-2.943-8.202-4.207-12.761-3.468-4.555.739-8.567 3.41-11.008 7.327l-14.863 23.853c-2.44 3.917-3.07 8.695-1.727 13.11 1.344 4.415 4.529 8.034 8.739 9.927zm5.719-15.104 14.862-23.854c.157-.253.387-.406.681-.454.059-.009.116-.014.173-.014.226 0 .433.077.616.229l45.298 37.519c.379.313.469.865.209 1.283l-6.52 10.463c-.26.417-.793.583-1.245.379l-53.641-24.127c-.271-.123-.453-.329-.54-.614-.087-.284-.051-.557.107-.81z"/><path d="m98.858 181.3 58.658 4.327c.393.029.783.043 1.171.043 7.473 0 14.084-5.277 15.648-12.685l2.548-12.063c1.646-7.792-2.77-15.687-10.271-18.363l-55.397-19.763c-4.347-1.55-9.149-1.148-13.178 1.105-4.027 2.253-6.885 6.135-7.837 10.649l-5.809 27.5c-.953 4.516.09 9.221 2.863 12.91 2.773 3.691 7.002 6.001 11.604 6.34zm.209-16.149 5.809-27.5c.062-.291.225-.512.484-.657.154-.086.313-.129.476-.129.111 0 .225.021.339.061l55.398 19.763c.463.166.736.653.635 1.135l-2.548 12.063c-.102.481-.535.804-1.04.782l-58.658-4.327c-.297-.022-.538-.154-.717-.392-.18-.239-.24-.508-.178-.799z"/><path d="m198.144 85.799c3.073 2.991 7.11 4.512 11.161 4.512 3.473 0 6.955-1.117 9.849-3.384l9.705-7.603s.001 0 .001-.001c6.269-4.912 7.96-13.797 3.934-20.668l-29.735-50.748c-2.333-3.982-6.271-6.761-10.805-7.624-4.536-.866-9.218.274-12.849 3.12l-22.125 17.332c-3.633 2.846-5.858 7.121-6.105 11.729-.248 4.608 1.507 9.097 4.814 12.316zm-31.613-53.255 22.126-17.333c.18-.141.379-.212.594-.212.065 0 .131.006.199.02.292.056.517.214.668.471l29.733 50.748c.25.425.145.975-.243 1.279l-9.704 7.601c-.386.305-.946.275-1.299-.069l-42.154-41.019c-.213-.208-.313-.464-.298-.761.016-.298.143-.541.378-.725z"/></svg>