<svg height="512pt" viewBox="0 0 512 512" width="512pt" xmlns="http://www.w3.org/2000/svg"><path d="m158.929688 381.847656v-252.132812c0-16.078125 13.03125-29.109375 29.109374-29.109375h135.921876c16.078124 0 29.109374 13.03125 29.109374 29.109375v252.132812c0 16.074219-13.03125 29.105469-29.109374 29.105469h-135.921876c-16.078124 0-29.109374-13.03125-29.109374-29.105469zm0 0" fill="#d5f1fe"/><path d="m353.070312 173.34375v-43.644531c0-16.066407-13.039062-29.09375-29.121093-29.09375h-135.898438c-16.082031 0-29.121093 13.027343-29.121093 29.09375v43.644531zm0 0" fill="#0076de"/><path d="m158.929688 338.21875v43.640625c0 16.070313 13.039062 29.09375 29.121093 29.09375h135.898438c16.082031 0 29.121093-13.023437 29.121093-29.09375v-43.640625zm0 0" fill="#0076de"/><path d="m323.949219 100.605469h-38.828125c16.082031 0 29.121094 13.027343 29.121094 29.09375v252.160156c0 16.070313-13.039063 29.09375-29.121094 29.09375h38.828125c16.082031 0 29.121093-13.023437 29.121093-29.09375v-252.160156c0-16.066407-13.039062-29.09375-29.121093-29.09375zm0 0" fill="#93dcfc"/><path d="m323.949219 100.605469h-38.828125c16.082031 0 29.121094 13.027343 29.121094 29.09375v43.644531h38.828124v-43.644531c0-16.066407-13.039062-29.09375-29.121093-29.09375zm0 0" fill="#005eb0"/><path d="m314.242188 338.21875v43.640625c0 16.070313-13.039063 29.09375-29.121094 29.09375h38.828125c16.082031 0 29.121093-13.023437 29.121093-29.09375v-43.640625zm0 0" fill="#005eb0"/><path d="m270.5625 375.070312c0-8.035156-6.519531-14.546874-14.5625-14.546874s-14.5625 6.511718-14.5625 14.546874c0 8.035157 6.519531 14.546876 14.5625 14.546876s14.5625-6.511719 14.5625-14.546876zm0 0" fill="#93dcfc"/><path d="m256 7.5c-137.242188 0-248.5 111.160156-248.5 248.28125s111.257812 248.277344 248.5 248.277344 248.5-111.15625 248.5-248.277344-111.257812-248.28125-248.5-248.28125zm-209.785156 248.28125c0-50.773438 18.070312-97.324219 48.132812-133.597656l295.367188 295.105468c-36.304688 30.035157-82.898438 48.09375-133.714844 48.09375-115.863281 0-209.785156-93.84375-209.785156-209.601562zm370.996094 134.117188-295.449219-295.183594c36.378906-30.300782 83.175781-48.535156 134.238281-48.535156 115.863281 0 209.785156 93.839843 209.785156 209.601562 0 51.019531-18.25 97.773438-48.574218 134.117188zm0 0" fill="#e5554e"/><path d="m256 7.5c-6.5625 0-13.066406.257812-19.5.757812 118.824219 9.214844 214.191406 101.933594 227.414062 219.492188 1.226563 9.171875 1.871094 18.523438 1.871094 28.03125 0 9.660156-.65625 19.164062-1.921875 28.476562-13.414062 117.34375-108.6875 209.839844-227.363281 219.046876 6.433594.496093 12.9375.757812 19.5.757812 137.242188 0 248.5-111.160156 248.5-248.28125s-111.257812-248.28125-248.5-248.28125zm0 0" fill="#c62430"/><path d="m256 353.023438c-12.164062 0-22.0625 9.890624-22.0625 22.046874s9.898438 22.046876 22.0625 22.046876 22.0625-9.890626 22.0625-22.046876-9.898438-22.046874-22.0625-22.046874zm0 29.09375c-3.894531 0-7.0625-3.160157-7.0625-7.046876 0-3.886718 3.167969-7.046874 7.0625-7.046874s7.0625 3.160156 7.0625 7.046874c0 3.886719-3.167969 7.046876-7.0625 7.046876zm0 0"/><path d="m216.46875 136.972656c0 4.144532 3.355469 7.5 7.5 7.5h65.035156c4.144532 0 7.5-3.355468 7.5-7.5 0-4.140625-3.355468-7.5-7.5-7.5h-65.035156c-4.144531 0-7.5 3.359375-7.5 7.5zm0 0"/><path d="m437.015625 74.914062c-48.351563-48.308593-112.636719-74.914062-181.015625-74.914062s-132.664062 26.605469-181.019531 74.914062c-48.351563 48.308594-74.980469 112.542969-74.980469 180.867188 0 68.320312 26.628906 132.554688 74.980469 180.863281 48.355469 48.308594 112.640625 74.914063 181.019531 74.914063s132.664062-26.605469 181.015625-74.914063c48.355469-48.308593 74.984375-112.542969 74.984375-180.863281 0-68.324219-26.628906-132.558594-74.984375-180.867188zm-10.601563 351.121094c-45.519531 45.480469-106.039062 70.523438-170.414062 70.523438s-124.894531-25.042969-170.414062-70.523438c-45.519532-45.476562-70.585938-105.941406-70.585938-170.253906s25.066406-124.777344 70.585938-170.257812c45.519531-45.476563 106.039062-70.523438 170.414062-70.523438s124.894531 25.046875 170.414062 70.523438c45.519532 45.480468 70.585938 105.945312 70.585938 170.257812s-25.066406 124.777344-70.585938 170.253906zm0 0"/><path d="m409.644531 102.261719c-41.042969-41-95.605469-63.582031-153.644531-63.582031-50.734375 0-100.113281 17.851562-139.039062 50.269531-1.621094 1.351562-2.597657 3.316406-2.691407 5.425781-.097656 2.105469.699219 4.152344 2.191407 5.644531l37.164062 37.128907c0 .003906.003906.003906.003906.003906l194.132813 193.964844c.003906 0 .003906.003906.007812.003906l64.136719 64.082031c1.410156 1.410156 3.316406 2.195313 5.300781 2.195313.113281 0 .226563-.003907.339844-.007813 2.105469-.09375 4.070313-1.070313 5.421875-2.6875 32.445312-38.890625 50.316406-88.230469 50.316406-138.925781 0-57.988282-22.601562-112.507813-63.640625-153.515625zm-64.074219 205.460937-126.992187-126.878906h126.992187zm71.015626 70.953125-56.015626-55.964843v-193.011719c0-20.179688-16.429687-36.59375-36.621093-36.59375h-50.449219c-4.144531 0-7.5 3.355469-7.5 7.5 0 4.140625 3.355469 7.5 7.5 7.5h50.449219c11.921875 0 21.621093 9.6875 21.621093 21.59375v36.144531h-142.003906l-37.113281-37.078125c.492187-11.476563 9.988281-20.660156 21.597656-20.660156h50.449219c4.144531 0 7.5-3.355469 7.5-7.5 0-4.140625-3.355469-7.5-7.5-7.5h-50.449219c-15.460937 0-28.707031 9.628906-34.070312 23.199219l-20.984375-20.964844c35.164062-26.925782 78.523437-41.660156 123.003906-41.660156 111.539062 0 202.285156 90.660156 202.285156 202.101562 0 44.441406-14.753906 87.765625-41.699218 122.894531zm0 0"/><path d="m358.382812 375.386719c-.007812-.007813-.011718-.011719-.015624-.015625l-42.492188-42.453125c-.003906-.003907-.003906-.003907-.007812-.007813l-151.625-151.492187c-.007813-.007813-.011719-.011719-.019532-.019531l-64.578125-64.519532c-1.492187-1.488281-3.535156-2.277344-5.652343-2.1875-2.105469.101563-4.074219 1.082032-5.421876 2.707032-32.148437 38.792968-49.855468 87.9375-49.855468 138.382812 0 54.832031 20.511718 107.183594 57.761718 147.40625 37.039063 39.996094 87.257813 64.480469 141.40625 68.949219.210938.019531.417969.023437.625.023437 3.863282 0 7.144532-2.964844 7.46875-6.882812.339844-4.128906-2.730468-7.75-6.859374-8.089844-50.402344-4.160156-97.152344-26.957031-131.636719-64.191406-34.671875-37.441406-53.765625-86.171875-53.765625-137.214844 0-44.199219 14.601562-87.328125 41.273437-122.351562l56.441407 56.390624v69.40625c0 4.140626 3.355468 7.5 7.5 7.5 4.140624 0 7.5-3.359374 7.5-7.5v-54.421874l126.019531 125.914062h-126.019531v-36.492188c0-4.144531-3.355469-7.5-7.5-7.5-4.144532 0-7.5 3.355469-7.5 7.5v87.632813c0 20.179687 16.429687 36.597656 36.621093 36.597656h135.898438c15.199219 0 28.261719-9.300781 33.792969-22.503906l20.71875 20.699219c-30.6875 23.378906-67.015626 37.355468-105.578126 40.535156-4.128906.34375-7.199218 3.964844-6.855468 8.09375.339844 4.128906 3.953125 7.199219 8.089844 6.855469 44.378906-3.660157 86.007812-20.628907 120.378906-49.066407 1.625-1.347656 2.609375-3.316406 2.710937-5.425781.097657-2.109375-.699219-4.164062-2.191406-5.65625zm-34.433593 28.066406h-135.898438c-11.921875 0-21.621093-9.6875-21.621093-21.59375v-36.144531h141.035156l38.019531 37.988281c-.9375 11.046875-10.238281 19.75-21.535156 19.75zm0 0"/></svg>