<svg height="512pt" viewBox="-77 0 512 512.00041" width="512pt" xmlns="http://www.w3.org/2000/svg"><path d="m220.492188 365.859375c0 12.59375-7.46875 22.792969-16.683594 22.792969h-48.867188c-9.214844 0-16.6875-10.199219-16.6875-22.792969v-84.667969c0-12.589844 7.472656-22.792968 16.6875-22.792968h48.867188c9.214844 0 16.683594 10.203124 16.683594 22.792968zm0 0" fill="#ffcdcd"/><path d="m350.308594 470.382812-22.613282-94.757812c-7.097656-23.410156-30.957031-53.023438-69.140624-53.023438h-38.046876l-.058593.089844c-19.582031 29.25-62.671875 29.207032-82.191407-.089844h-38.242187c-38.179687 0-59.375 25.855469-69.136719 53.023438l-22.613281 94.757812c-4.15625 17.414063 9.140625 34.117188 27.15625 34.117188h287.730469c18.015625 0 31.308594-16.703125 27.15625-34.117188zm0 0" fill="#5bb7d9"/><path d="m350.308594 470.382812-22.613282-94.757812c-7.097656-23.410156-30.957031-53.023438-69.140624-53.023438h-38.046876l-.019531.03125c37.46875.621094 60.902344 29.832032 67.925781 52.992188l22.613282 94.757812c4.152344 17.414063-9.140625 34.117188-27.15625 34.117188h39.28125c18.015625 0 31.308594-16.703125 27.15625-34.117188zm0 0" fill="#489bc8"/><path d="m277.058594 141.789062c-1.234375-.125-2.46875.058594-3.671875.503907-5.042969-61.992188-36.726563-109.699219-94.101563-109.699219s-89.058594 47.707031-94.097656 109.699219c-1.207031-.445313-2.4375-.628907-3.675781-.503907-8.105469.828126-13.363281 14.410157-11.734375 30.339844 1.628906 15.9375 9.527344 28.175782 17.632812 27.351563.222656-.023438.445313-.058594.667969-.101563 9.972656 51.308594 40.59375 88.4375 91.210937 88.4375 50.613282 0 81.234376-37.125 91.207032-88.4375.21875.042969.441406.078125.667968.101563 8.105469.828125 16.003907-11.414063 17.632813-27.351563 1.628906-15.929687-3.628906-29.511718-11.738281-30.339844zm0 0" fill="#ffe1d6"/><path d="m298.128906 70.472656c-17.507812-16.289062-28.761718-2.503906-28.761718-20.046875s-18.753907-18.796875-36.167969-20.050781c-17.414063-1.25-27.601563-7.515625-37.605469-17.542969-10.003906-10.023437-31.261719-5.011719-41.265625 7.519531s-25.007813 2.507813-45.015625 4.632813c-20.007812 2.128906-27.507812 15.417969-31.261719 32.960937-3.75 17.542969-13.753906 7.519532-33.761719 33.832032-20.007812 26.316406-15.003906 52.628906 7.503907 68.429687 11.03125 7.742188-2.476563 23.421875 8.753906 51.867188 6.25 15.835937 32.511719 32.015625 52.515625 32.578125l35.015625-22.554688s32.507813-2.503906 57.519531 7.519532c25.007813 10.023437 18.757813 33.832031 33.761719 25.0625 15.003906-8.773438 36.941406-12.53125 49.730469-42.605469 8.675781-20.394531 30.296875-22.558594 21.542968-45.113281-8.753906-22.554688-6.25-21.632813 8.753907-43.4375 15.003906-21.808594-3.753907-36.757813-21.257813-53.050782zm0 0" fill="#7f8194"/><path d="m298.128906 70.472656c-17.507812-16.289062-28.761718-2.503906-28.761718-20.046875s-18.753907-18.796875-36.167969-20.050781c-17.414063-1.25-27.601563-7.515625-37.605469-17.542969-10.003906-10.023437-31.261719-5.011719-41.265625 7.519531-7.898437 9.894532-18.921875 5.726563-33.0625 4.582032 5.953125 2.953125 12.828125 4.820312 21.492187 5.441406 17.414063 1.253906 36.171876 2.507812 36.171876 20.050781s11.253906 3.757813 28.761718 20.046875c17.503906 16.292969 36.261719 31.242188 21.253906 53.050782-15.003906 21.804687-17.503906 20.882812-8.75 43.4375 8.75 22.558593-12.871093 24.71875-21.542968 45.113281-2.179688 5.121093-4.628906 9.464843-7.257813 13.21875 4.820313 1.085937 9.636719 2.492187 14.199219 4.324219 25.011719 10.023437 18.757812 33.832031 33.765625 25.0625 15.003906-8.773438 36.941406-12.53125 49.730469-42.605469 8.671875-20.394531 30.296875-22.554688 21.542968-45.113281-8.753906-22.554688-6.253906-21.628907 8.753907-43.4375 15.003906-21.808594-3.75-36.757813-21.257813-53.050782zm0 0" fill="#6e7081"/><path d="m277.058594 141.789062c-1.234375-.125-2.46875.058594-3.671875.503907-.636719-7.832031-1.703125-15.4375-3.1875-22.75l-14.585938 9.828125s-10-11.28125-33.761719-8.773438c-23.757812 2.507813-16.253906 11.277344-42.480468 5.011719-26.230469-6.265625-23.792969 0-39.351563 14.378906-15.558593 14.375-21.953125 3.164063-41.960937-7.949219-4.5625-2.53125-8.078125-4.433593-10.914063-5.78125-.859375 5.21875-1.515625 10.570313-1.960937 16.035157-1.203125-.449219-2.433594-.628907-3.671875-.503907-8.109375.824219-13.367188 14.410157-11.738281 30.339844 1.628906 15.933594 9.527343 28.175782 17.636718 27.351563.222656-.023438.445313-.058594.664063-.101563 9.976562 51.308594 40.59375 88.4375 91.210937 88.4375 50.617188 0 81.238282-37.128906 91.210938-88.4375.21875.042969.441406.078125.664062.101563 8.109375.824219 16.003906-11.417969 17.632813-27.351563 1.632812-15.929687-3.625-29.511718-11.734375-30.339844zm0 0" fill="#ffe1d6"/><path d="m277.058594 141.789062c-1.234375-.125-2.46875.058594-3.675782.503907-.636718-7.832031-1.699218-15.4375-3.183593-22.75l-14.585938 9.828125s-7.207031-8.117188-23.898437-9.046875c13.085937 64.148437-11.183594 142.882812-69.640625 165.9375 5.457031 1.011719 11.1875 1.554687 17.210937 1.554687 50.617188 0 81.238282-37.128906 91.210938-88.4375.21875.042969.441406.078125.664062.101563 8.109375.824219 16.007813-11.417969 17.636719-27.351563 1.628906-15.929687-3.628906-29.511718-11.738281-30.339844zm0 0" fill="#ffcdcd"/><path d="m189.421875 369.128906c0-6.152344-4.976563-11.140625-11.113281-11.140625-6.140625 0-11.113282 4.988281-11.113282 11.140625 0 6.148438 4.972657 11.136719 11.113282 11.136719 6.136718 0 11.113281-4.988281 11.113281-11.136719zm0 0" fill="#489bc8"/><path d="m189.421875 406.589844c0-6.152344-4.976563-11.140625-11.113281-11.140625-6.140625 0-11.113282 4.988281-11.113282 11.140625s4.972657 11.136718 11.113282 11.136718c6.136718 0 11.113281-4.984374 11.113281-11.136718zm0 0" fill="#489bc8"/><path d="m357.601562 468.640625-22.613281-94.757813c-.035156-.148437-.074219-.292968-.117187-.4375-8.519532-28.101562-36.039063-58.34375-76.3125-58.34375h-30.5625v-32.988281c6.320312-3.867187 12.1875-8.558593 17.519531-14.054687 3.945313-4.0625 7.589844-8.578125 10.941406-13.480469 11.988281-5.683594 28.933594-14.636719 39.535157-39.570313 2.730468-6.410156 7.203124-10.832031 11.527343-15.109374 7.710938-7.617188 17.304688-17.101563 10.105469-35.652344-3.289062-8.472656-4.878906-13.34375-4.457031-16.457032.40625-2.976562 3.003906-6.65625 7.726562-13.335937 1.394531-1.976563 2.953125-4.179687 4.671875-6.679687 17.765625-25.820313-2.683594-44.671876-19.113281-59.816407-1.070313-.988281-2.144531-1.976562-3.214844-2.972656-9.902343-9.21875-18.710937-10.542969-23.972656-11.335937-.703125-.105469-1.574219-.234376-2.21875-.363282-.089844-.550781-.179687-1.453125-.179687-2.859375 0-7.625-2.808594-17.816406-16.203126-23.074219-7.867187-3.085937-17.414062-3.769531-26.644531-4.4375l-.285156-.019531c-15.703125-1.128906-24.207031-6.714843-32.832031-15.359375-5.296875-5.308594-13.039063-7.960937-21.789063-7.4804685-11.734375.6523435-23.476562 6.6328125-30.648437 15.6171875-3.375 4.230469-7.410156 4.121094-18.09375 2.738281-6.371094-.828125-13.597656-1.761718-21.851563-.882812-27.054687 2.875-34.53125 23.546875-37.804687 38.847656-1.15625 5.410156-2.171875 5.960938-7.050782 8.617188-5.730468 3.113281-14.378906 7.820312-25.347656 22.246093-5.195312 6.835938-9.011718 13.898438-11.34375 21-1.289062 3.9375.855469 8.175781 4.789063 9.464844 3.9375 1.292969 8.171875-.851563 9.464843-4.789063 1.808594-5.507812 4.847657-11.09375 9.03125-16.597656 9.019532-11.863281 15.425782-15.347656 20.570313-18.148437 5.878906-3.195313 11.957031-6.503907 14.554687-18.65625 3.847657-18 10.78125-25.585938 24.71875-27.070313 6.503907-.6875 12.519532.089844 18.339844.84375 10.6875 1.386719 22.796875 2.957032 31.746094-8.253906 4.445312-5.574219 12.386719-9.589844 19.753906-9.996094 2.566406-.144531 7.320313.070313 10.339844 3.09375 9.3125 9.332032 20.890625 18.179688 42.375 19.726563l.285156.023437c21.347656 1.535156 28.925782 3.660156 28.925782 12.546875 0 4.488281.53125 10.132813 4.679687 13.992188 3.195313 2.96875 7.066406 3.550781 10.484375 4.066406 4.441406.667969 9.476562 1.425781 15.984375 7.480469 1.089844 1.011718 2.179687 2.019531 3.269531 3.019531 19.410156 17.894531 26.375 26.546875 16.921875 40.289063-1.679687 2.4375-3.203125 4.59375-4.566406 6.523437-12.25 17.339844-13.59375 21.738281-5 43.878906 3.636719 9.371094.621094 12.355469-6.667969 19.554688-4.855468 4.800781-10.902344 10.777343-14.785156 19.90625-3.355469 7.890625-7.332031 13.710937-11.792969 18.277343 2.511719-6.675781 4.632813-13.738281 6.316407-21.160156 9.851562-3.214844 17.789062-16.207031 19.542968-33.359375.90625-8.859375-.046875-17.492187-2.683594-24.304687-2.902343-7.5-7.601562-12.328125-13.390624-13.835938-.65625-5.714844-1.539063-11.308594-2.636719-16.703125-.496094-2.457031-2.1875-4.5-4.507813-5.445312-2.316406-.953125-4.957031-.679688-7.03125.71875l-10.023437 6.753906c-4.867188-3.1875-13.222657-6.984375-25.65625-7.320313-4.132813-.125-7.585938 3.15625-7.699219 7.296876-.109375 4.140624 3.15625 7.589843 7.296875 7.699218 13.421875.359375 19.460937 5.988282 20.121094 6.644532 2.457031 2.941406 6.570312 3.34375 9.757812 1.191406l4.945313-3.332032c.480468 3.496094.871094 7.050782 1.160156 10.648438.191406 2.339844 1.46875 4.457031 3.449219 5.71875s4.441406 1.519531 6.640625.699219c.171875-.0625.285156-.082031.300781-.070313.25.023438 1.816406.953125 3.285156 4.75 1.773438 4.582032 2.410157 10.910156 1.75 17.363282-1.464843 14.339843-7.832031 20.652343-9.378906 20.652343-.015625 0-.035156-.003906-.050781-.003906-4.058594-.785156-7.984375 1.878906-8.773438 5.933594-3.542968 18.238281-9.566406 33.753906-17.730468 46.246093-.058594.082032-.113282.167969-.171876.253907-15.265624 23.199219-37.953124 35.867187-65.941406 35.867187-29.65625 0-53.371094-14.203125-68.601562-40.109375-.144532-.300781-.308594-.597656-.492188-.878906-6.660156-11.582031-11.65625-25.4375-14.757812-41.378906-.789063-4.054688-4.722656-6.703125-8.789063-5.929688-.015625.003907-.03125.003907-.046875.003907-1.527344 0-7.898437-6.3125-9.363281-20.65625-.660156-6.453126-.023437-12.78125 1.75-17.363282 1.46875-3.796875 3.035156-4.726562 3.285156-4.75.023438-.011718.125.007813.296875.070313 2.199219.820312 4.660156.5625 6.644532-.699219 1.980468-1.261719 3.257812-3.378906 3.449218-5.722656.132813-1.671875.292969-3.347656.472656-5.015625.417969.230469.84375.46875 1.28125.710937 4.203126 2.335938 7.867188 4.734375 11.097657 6.855469 11.925781 7.820313 23.1875 15.203125 39.59375.042969 3.398437-3.136719 6.007812-5.933594 8.105469-8.179688 3.664062-3.925781 5.375-5.6875 7.542968-6.289062 2.886719-.800782 8.089844-.21875 16.871094 1.878906 8.027344 1.917969 13.667969 2.640625 18.277344 2.355469 4.136718-.257813 7.277344-3.816407 7.019531-7.949219-.257813-4.136719-3.8125-7.273438-7.953125-7.019531-2.980469.183593-7.515625-.460938-13.859375-1.976563-23.035156-5.503906-28.65625-2.167968-38.863281 8.761719-2.027344 2.175781-4.328125 4.636719-7.316406 7.402344-7.800782 7.207031-9.585938 6.039062-21.191407-1.574219-3.445312-2.257812-7.355469-4.820312-12.039062-7.421875-4.597657-2.554687-8.285157-4.550781-11.339844-6-2.128906-1.011719-4.609375-.960937-6.695313.132813-2.085937 1.089843-3.539062 3.101562-3.921874 5.425781-.523438 3.191406-.976563 6.4375-1.351563 9.710937-5.789063 1.507813-10.492187 6.335938-13.394531 13.835938-1.464844 3.789062-2.390625 8.148437-2.785156 12.78125-1.175782-2.6875-3.070313-5.167969-6.109376-7.304688-5.492187-3.851562-9.726562-8.359375-12.597656-13.398437-2.046875-3.601563-6.628906-4.855469-10.226562-2.804688-3.601563 2.046875-4.855469 6.628907-2.808594 10.226563 3.972656 6.976562 9.695312 13.117187 17.011719 18.257812 1.5625 1.09375 1.75 2.785156 1.191406 10.648438-.648437 9.09375-1.535156 21.542968 4.894531 37.832031 6.386719 16.171875 27.523438 30.078125 45.546875 35.121094 4.132813 6.722656 8.785157 12.800781 13.941407 18.113281 5.378906 5.546875 11.304687 10.277344 17.695312 14.164062v32.878907h-15.199219c-4.140625 0-7.5 3.355469-7.5 7.5 0 4.140625 3.359375 7.5 7.5 7.5h18.863281c9.230469 11.898437 22.738282 19.578125 37.59375 21.507812-7.171874 2.59375-12.320312 9.453125-12.320312 17.515625 0 10.277344 8.351562 18.640625 18.617188 18.640625 10.265624 0 18.613281-8.363281 18.613281-18.640625 0-7.871094-4.902344-14.601562-11.804688-17.328125 15.503907-1.558593 29.675781-9.367187 39.230469-21.695312h34.207031c32.535157 0 54.859375 24.574219 61.898438 47.488281l22.558593 94.53125c1.433594 6.011719.054688 12.25-3.785156 17.113281-3.894531 4.933594-9.753906 7.765625-16.074218 7.765625h-287.730469c-6.320313 0-12.179688-2.832031-16.070313-7.765625-3.84375-4.863281-5.222656-11.101562-3.789062-17.113281l22.515625-94.347656c11.121093-30.589844 30.292969-41.597656 44.445312-45.441406 3.996094-1.085938 6.359375-5.207032 5.273438-9.203126-1.085938-4-5.210938-6.355468-9.203125-5.273437-24.957032 6.78125-44.40625 26.394531-54.769532 55.230469-.09375.261718-.175781.527344-.238281.796875l-22.613281 94.753906c-2.503906 10.503906-.101562 21.398437 6.605469 29.890625 6.757812 8.558594 16.90625 13.46875 27.847656 13.46875h287.730469c10.9375 0 21.089844-4.910156 27.847656-13.46875 6.703125-8.488281 9.109375-19.386719 6.601562-29.890625zm-290.078124-259.320313c-4.730469-11.984374-4.542969-21.40625-4.035157-29.109374 2.976563 13.46875 9.976563 23.3125 18.371094 26.042968 1.875 8.265625 4.285156 16.089844 7.1875 23.421875-10.144531-5.5625-18.761719-13.363281-21.523437-20.355469zm110.785156 163.445313c-1.992188 0-3.613282-1.632813-3.613282-3.640625s1.621094-3.636719 3.613282-3.636719c1.992187 0 3.613281 1.628907 3.613281 3.636719s-1.621094 3.640625-3.613281 3.640625zm1.074218-35.664063h-.046874c-13.519532-.015624-25.636719-6.148437-33.582032-16.890624v-30.746094c10.367188 3.851562 21.617188 5.851562 33.53125 5.851562 11.984375 0 23.292969-2.023437 33.707032-5.917968v30.832031c-7.957032 10.746093-20.082032 16.871093-33.609376 16.871093zm0 0"/><path d="m196.921875 406.589844c0-10.277344-8.347656-18.640625-18.613281-18.640625s-18.613282 8.363281-18.613282 18.640625 8.347657 18.636718 18.613282 18.636718 18.613281-8.359374 18.613281-18.636718zm-22.226563 0c0-2.007813 1.621094-3.640625 3.613282-3.640625 1.992187 0 3.613281 1.632812 3.613281 3.640625 0 2.007812-1.621094 3.636718-3.613281 3.636718-1.992188 0-3.613282-1.628906-3.613282-3.636718zm0 0"/></svg>