<?xml version="1.0" encoding="iso-8859-1"?>
<!-- Generator: Adobe Illustrator 19.0.0, SVG Export Plug-In . SVG Version: 6.00 Build 0)  -->
<svg version="1.1" id="Capa_1" xmlns="http://www.w3.org/2000/svg" xmlns:xlink="http://www.w3.org/1999/xlink" x="0px" y="0px"
	 viewBox="0 0 512.002 512.002" style="enable-background:new 0 0 512.002 512.002;" xml:space="preserve">
<path id="SVGCleanerId_0" d="M509.502,181.699l-179.2-179.2c-3.328-3.328-8.738-3.328-12.066,0L20.602,300.133
	c-27.469,27.469-27.469,71.996,0,99.465l0,0l33.101,33.101l12.561,12.561l46.14,46.14c1.246,1.246,2.56,2.389,3.891,3.533H0.002
	v17.067h512v-17.067H207.977c1.323-1.143,2.645-2.287,3.891-3.533l297.634-297.634C512.83,190.429,512.83,185.027,509.502,181.699z
	 M324.269,20.598l115.934,115.934L187.735,388.999L71.802,273.066L324.269,20.598z M65.769,420.633l-33.101-33.101
	c-20.796-20.804-20.796-54.528,0-75.332l27.068-27.068l115.934,115.934l-32.128,32.128c-18.022,17.971-47.189,17.971-65.212,0
	L65.769,420.633z M199.802,479.333c-20.804,20.796-54.528,20.796-75.332,0l-15.676-15.676c0.717,0,1.425,0.102,2.142,0.102
	c16.768,0.043,32.853-6.613,44.672-18.5l32.128-32.128l39.134,39.134L199.802,479.333z M238.935,440.199l-39.134-39.134
	l252.467-252.467l39.134,39.134L238.935,440.199z"/>
<path id="SVGCleanerId_1" d="M273.069,460.799v17.067h1.459c17.732,0.051,34.739-6.997,47.241-19.567l-12.066-12.066
	c-9.31,9.361-21.973,14.609-35.174,14.566H273.069z"/>
<path id="SVGCleanerId_2" d="M375.469,401.066v-17.067h-1.459c-17.732-0.051-34.739,6.997-47.241,19.567l12.066,12.066
	c9.31-9.361,21.973-14.609,35.174-14.566H375.469z"/>
<path id="SVGCleanerId_3" d="M409.176,477.866v-17.067c-13.201,0.034-25.865-5.205-35.174-14.566l-1.033-1.033l-12.066,12.066
	l1.033,1.033C374.436,470.868,391.443,477.917,409.176,477.866z"/>
<path id="SVGCleanerId_4" d="M418.135,401.066v17.067h1.459c17.732,0.051,34.739-6.997,47.241-19.567l-12.066-12.066
	c-9.31,9.361-21.973,14.609-35.174,14.566H418.135z"/>
<g>
	<path style="fill:#D1D1D1;" d="M274.528,477.866h-1.459v-17.067h1.459c13.201,0.043,25.865-5.205,35.174-14.566l12.066,12.066
		C309.267,470.868,292.26,477.917,274.528,477.866z"/>
	<path style="fill:#D1D1D1;" d="M338.835,415.632l-12.066-12.066c12.501-12.57,29.508-19.618,47.241-19.567h1.459v17.067h-1.459
		C360.809,401.023,348.145,406.271,338.835,415.632z"/>
	<path style="fill:#D1D1D1;" d="M409.176,477.866c-17.732,0.051-34.739-6.997-47.241-19.567l-1.033-1.033l12.066-12.066l1.033,1.033
		c9.31,9.361,21.973,14.601,35.174,14.566L409.176,477.866L409.176,477.866z"/>
	<path style="fill:#D1D1D1;" d="M419.595,418.132h-1.459v-17.067h1.459c13.201,0.043,25.865-5.205,35.174-14.566l12.066,12.066
		C454.334,411.135,437.327,418.183,419.595,418.132z"/>
</g>
<path style="fill:#E0E0E0;" d="M162.135,503.466L162.135,503.466c-16.393,0-32.111-6.511-43.699-18.099l-91.802-91.802
	c-11.588-11.588-18.099-27.307-18.099-43.699l0,0c0-16.393,6.511-32.111,18.099-43.699L324.269,8.532l179.2,179.2L205.835,485.366
	C194.246,496.955,178.528,503.466,162.135,503.466z"/>
<path style="fill:#D1D1D1;" d="M452.269,136.532L149.574,439.227c-21.316,21.342-55.893,21.359-77.235,0.043
	c-0.017-0.017-0.026-0.026-0.043-0.043l46.14,46.14c24.132,24.132,63.266,24.132,87.398,0l297.634-297.634L452.269,136.532z"/>
<rect x="94.552" y="103.663" transform="matrix(-0.7071 0.7071 -0.7071 -0.7071 643.6288 194.1476)" style="fill:#4398D1;" width="374.106" height="253.421"/>
<rect x="158.563" y="258.212" transform="matrix(-0.7071 0.7071 -0.7071 -0.7071 798.1858 258.2094)" style="fill:#3E8CC7;" width="374.106" height="72.405"/>
<rect x="0.002" y="494.932" style="fill:#D1D1D1;" width="512" height="17.067"/>
<g>
	<path id="SVGCleanerId_0_1_" d="M509.502,181.699l-179.2-179.2c-3.328-3.328-8.738-3.328-12.066,0L20.602,300.133
		c-27.469,27.469-27.469,71.996,0,99.465l0,0l33.101,33.101l12.561,12.561l46.14,46.14c1.246,1.246,2.56,2.389,3.891,3.533H0.002
		v17.067h512v-17.067H207.977c1.323-1.143,2.645-2.287,3.891-3.533l297.634-297.634C512.83,190.429,512.83,185.027,509.502,181.699z
		 M324.269,20.598l115.934,115.934L187.735,388.999L71.802,273.066L324.269,20.598z M65.769,420.633l-33.101-33.101
		c-20.796-20.804-20.796-54.528,0-75.332l27.068-27.068l115.934,115.934l-32.128,32.128c-18.022,17.971-47.189,17.971-65.212,0
		L65.769,420.633z M199.802,479.333c-20.804,20.796-54.528,20.796-75.332,0l-15.676-15.676c0.717,0,1.425,0.102,2.142,0.102
		c16.768,0.043,32.853-6.613,44.672-18.5l32.128-32.128l39.134,39.134L199.802,479.333z M238.935,440.199l-39.134-39.134
		l252.467-252.467l39.134,39.134L238.935,440.199z"/>
</g>
<g>
	<path id="SVGCleanerId_1_1_" d="M273.069,460.799v17.067h1.459c17.732,0.051,34.739-6.997,47.241-19.567l-12.066-12.066
		c-9.31,9.361-21.973,14.609-35.174,14.566H273.069z"/>
</g>
<g>
	<path id="SVGCleanerId_2_1_" d="M375.469,401.066v-17.067h-1.459c-17.732-0.051-34.739,6.997-47.241,19.567l12.066,12.066
		c9.31-9.361,21.973-14.609,35.174-14.566H375.469z"/>
</g>
<g>
	<path id="SVGCleanerId_3_1_" d="M409.176,477.866v-17.067c-13.201,0.034-25.865-5.205-35.174-14.566l-1.033-1.033l-12.066,12.066
		l1.033,1.033C374.436,470.868,391.443,477.917,409.176,477.866z"/>
</g>
<g>
	<path id="SVGCleanerId_4_1_" d="M418.135,401.066v17.067h1.459c17.732,0.051,34.739-6.997,47.241-19.567l-12.066-12.066
		c-9.31,9.361-21.973,14.609-35.174,14.566H418.135z"/>
</g>
<g>
</g>
<g>
</g>
<g>
</g>
<g>
</g>
<g>
</g>
<g>
</g>
<g>
</g>
<g>
</g>
<g>
</g>
<g>
</g>
<g>
</g>
<g>
</g>
<g>
</g>
<g>
</g>
<g>
</g>
</svg>
